<svg xmlns="http://www.w3.org/2000/svg" xml:space="preserve" width="16" height="16" viewBox="0 0 4.233 4.233"><g style="fill:#000" transform="scale(.26458)"><rect width=".529" height=".529" x="104.878" y="143.584" rx="0" ry="0" style="fill:#000;fill-opacity:1;stroke:none;stroke-width:.264999;stroke-linejoin:round;stroke-dasharray:none;stroke-opacity:1" transform="matrix(3.77953 0 0 3.77953 -396.389 -528.68)"/><rect width="3.963" height="3.969" x="105.037" y="140.031" rx=".287" ry=".361" style="fill:#69f;fill-opacity:1;stroke:none;stroke-width:.264999;stroke-linejoin:round;stroke-dasharray:none;stroke-opacity:1" transform="matrix(3.77953 0 0 3.77953 -396.389 -528.68)"/><path d="M14 1a1 1 0 0 1 1 1v12a1 1 0 0 1-1 1H2a1 1 0 0 1-1-1V2a1 1 0 0 1 1-1ZM2 0a2 2 0 0 0-2 2v12a2 2 0 0 0 2 2h12a2 2 0 0 0 2-2V2a2 2 0 0 0-2-2Z" style="fill:#000;fill-opacity:1"/></g><path d="m106.821 141.357-.642 1.285a.4.4 0 0 1 .221.358h1.2a.4.4 0 0 1 .221-.357l-.643-1.286a.4.4 0 0 1-.178.043.4.4 0 0 1-.179-.043z" style="fill:none;stroke:#000;stroke-width:.264999;stroke-linejoin:round" transform="translate(-104.878 -139.88)"/><g style="display:inline" transform="translate(-104.878 -139.88)"><circle cx="106" cy="143" r=".4" style="display:inline;fill:none;stroke:#000;stroke-width:.264999;stroke-linejoin:round;stroke-dasharray:none;stroke-opacity:1"/><circle cx="108" cy="143" r=".4" style="display:inline;fill:none;stroke:#000;stroke-width:.264999;stroke-linejoin:round;stroke-dasharray:none;stroke-opacity:1"/><circle cx="107" cy="141" r=".4" style="display:inline;fill:none;stroke:#000;stroke-width:.264999;stroke-linejoin:round;stroke-dasharray:none;stroke-opacity:1"/></g></svg>